:SAMPLES-PER-SECOND 24
:FULLY-SPECIFIED
:DEGREES
455
root  3.4932 41.882 57.3921 -176.434 -50.9804 174.494
RightUpLeg  -12.0479 -18.8332 -13.9388
RightLeg  29.4049 11.1267 6.49593
RightFoot  11.4833 -1.62479 8.42901
RightToes  -1.74623e-010 0 -2.59999e-017
Spine  6.9616 -1.9353 -4.56472
Spine1  10.1951 -3.95614 5.0514
HEad  -1.74365 -26.2692 10.46
LeftShoulder1  1.81995 -3.48086 -19.5676
LeftArm  25.905 5.41982 -47.0481
LeftForeArm  109.773 -77.8535 -120.025
LeftHand  0.055936 9.33272 2.98894
RightShoulder  2.9848 5.31416 27.8902
RightArm  7.50437 -31.1714 35.2813
RightForeArm  -1.84627 18.9421 7.46742
RightHand  -0.0320173 -1.50959 -0.734328
LeftUpLeg  0.981025 11.7926 6.69769
LeftLeg  15.1906 -3.27287 -2.82495
LeftFoot  11.1441 2.87568 -14.7088
LeftToes  -6.27559e-011 -2.10356e-011 8.24929e-012
456
root  3.48395 41.4129 57.8231 -176.309 -52.4914 173.107
RightUpLeg  -10.8419 -14.5928 -13.3209
RightLeg  34.0816 8.31851 5.76502
RightFoot  9.82473 -1.02131 5.74879
RightToes  -1.74623e-010 0 -2.59999e-017
Spine  7.49318 -1.47651 -5.29639
Spine1  10.0823 -3.46328 4.38714
HEad  -2.60502 -27.942 10.3591
LeftShoulder1  1.71161 -3.37305 -18.313
LeftArm  23.6316 4.31362 -47.0188
LeftForeArm  112.222 -77.3973 -123.252
LeftHand  0.0865995 9.40148 3.80038
RightShoulder  2.81436 5.15655 26.4911
RightArm  14.0688 -30.089 32.9971
RightForeArm  -6.24749 22.198 5.66275
RightHand  -0.153492 -0.43867 -3.56361
LeftUpLeg  0.78873 13.76 7.02926
LeftLeg  19.8261 2.77523 1.06458
LeftFoot  10.1391 1.40792 -7.70009
LeftToes  -6.27559e-011 -2.10356e-011 8.24929e-012
457
root  3.44521 40.4106 58.2583 -175.83 -53.9633 171.457
RightUpLeg  -9.56632 -12.3777 -12.8402
RightLeg  37.582 2.33171 1.64873
RightFoot  2.408 -0.838275 7.11037
RightToes  -1.74623e-010 0 -2.59999e-017
Spine  7.9726 -1.19457 -6.16469
Spine1  9.76499 -3.17398 3.94921
HEad  -2.92601 -28.9483 9.81511
LeftShoulder1  1.665 -3.43709 -17.34
LeftArm  20.7313 2.53844 -46.9584
LeftForeArm  115.795 -76.8608 -126.783
LeftHand  0.138015 9.22158 5.42927
RightShoulder  2.62366 4.94808 24.9676
RightArm  15.2614 -27.7068 30.5156
RightForeArm  -6.3688 23.73 5.39754
RightHand  -0.232076 -0.413956 -5.4163
LeftUpLeg  0.959746 13.5584 7.99626
LeftLeg  25.0998 3.80273 2.33832
LeftFoot  6.80368 1.43826 -9.12504
LeftToes  -6.27559e-011 -2.10356e-011 8.24929e-012
458
root  3.38395 38.8814 58.7297 -175.086 -55.1277 169.887
RightUpLeg  -8.69212 -11.9992 -13.3798
RightLeg  40.352 -2.16479 -2.24577
RightFoot  -10.4609 -0.148224 9.99415
RightToes  -1.74623e-010 0 -2.59999e-017
Spine  8.22269 -1.22545 -6.77641
Spine1  9.56222 -3.12267 3.01796
HEad  -3.96812 -29.1045 9.3477
LeftShoulder1  1.60506 -3.25249 -17.0861
LeftArm  17.431 -0.436263 -46.056
LeftForeArm  118.599 -76.0425 -130.85
LeftHand  0.22566 9.57898 7.32217
RightShoulder  2.43297 4.68469 23.5684
RightArm  16.2588 -22.8096 27.8222
RightForeArm  -8.34263 23.3274 5.47309
RightHand  -0.222226 -0.801015 -5.56247
LeftUpLeg  1.00924 14.9385 9.3829
LeftLeg  30.3842 -2.59754 -1.28083
LeftFoot  -4.37608 1.02004 -16.2401
LeftToes  -6.27559e-011 -2.10356e-011 8.24929e-012
459
root  3.33579 37.402 59.1908 -175.158 -56.1301 169.021
RightUpLeg  -8.21869 -12.587 -14.9248
RightLeg  43.2089 -2.22313 -2.51447
RightFoot  -20.7623 0.626699 9.2882
RightToes  -1.74623e-010 0 -2.59999e-017
Spine  7.81528 -1.25593 -7.11789
Spine1  11.764 -3.17092 2.07225
HEad  -7.72932 -29.4782 10.7168
LeftShoulder1  1.52158 -2.63506 -18.2033
LeftArm  14.845 -6.56385 -45.3248
LeftForeArm  115.126 -76.2277 -129.305
LeftHand  0.495845 11.1107 10.7636
RightShoulder  2.51831 4.71347 24.5482
RightArm  4.59017 -15.3234 24.3451
RightForeArm  -3.01099 19.8936 6.51834
RightHand  -0.285981 -0.221045 -6.4039
LeftUpLeg  0.641709 16.9441 10.2625
LeftLeg  35.5811 -7.24723 -5.12797
LeftFoot  -16.5072 -0.655802 -17.0817
LeftToes  -6.27559e-011 -2.10356e-011 8.24929e-012
460
root  3.24581 36.8379 59.4601 -176.371 -56.7856 169.284
RightUpLeg  -8.38527 -13.5635 -16.2434
RightLeg  46.6448 -0.1912 -0.520211
RightFoot  -22.629 0.823381 9.84528
RightToes  -1.74623e-010 0 -2.59999e-017
Spine  6.61611 -0.871092 -7.1305
Spine1  15.3926 -2.93427 1.74954
HEad  -11.2819 -30.5778 12.9307
LeftShoulder1  1.61322 -2.49681 -20.4363
LeftArm  14.0615 -10.9128 -47.2071
LeftForeArm  109.271 -77.5902 -121.339
LeftHand  0.786168 12.4118 13.5101
RightShoulder  2.77833 4.95422 26.8553
RightArm  -18.9362 -11.4778 24.1189
RightForeArm  5.13063 21.1648 5.62364
RightHand  -0.43302 -2.10007 -16.2303
LeftUpLeg  0.798964 16.727 10.2947
LeftLeg  37.7545 -6.54588 -5.00844
LeftFoot  -20.4784 -1.10414 -15.1236
LeftToes  -6.27559e-011 -2.10356e-011 8.24929e-012
461
root  3.05951 37.4889 59.3717 -178.088 -56.8181 170.649
RightUpLeg  -9.56175 -14.3196 -16.3386
RightLeg  49.4004 1.16947 1.12634
RightFoot  -14.9915 0.261767 12.5869
RightToes  -1.74623e-010 0 -2.59999e-017
Spine  5.49718 -0.450775 -7.06417
Spine1  16.7096 -2.77608 2.50164
HEad  -10.3295 -31.4532 13.0275
LeftShoulder1  1.78633 -2.79512 -22.0224
LeftArm  15.0534 -6.95931 -51.5211
LeftForeArm  110.926 -78.0788 -119.059
LeftHand  0.802291 12.4509 13.6845
RightShoulder  2.83239 4.9865 27.3879
RightArm  -31.0204 -12.7849 29.6279
RightForeArm  1.98044 31.3951 6.7257
RightHand  -0.715661 -3.05788 -33.0409
LeftUpLeg  2.3737 14.4445 10.3336
LeftLeg  35.1303 -4.81063 -3.24689
LeftFoot  -16.3895 -0.637029 -16.6852
LeftToes  -6.27559e-011 -2.10356e-011 8.24929e-012
462
root  2.8259 38.8502 58.9744 -179.318 -56.8356 171.902
RightUpLeg  -10.622 -14.7332 -15.8186
RightLeg  49.344 2.29318 2.52398
RightFoot  -1.32923 -0.852494 9.6068
RightToes  -1.74623e-010 0 -2.59999e-017
Spine  4.6609 -0.570861 -7.55532
Spine1  15.8918 -3.17961 3.74057
HEad  -7.00373 -31.5727 11.569
LeftShoulder1  1.81285 -2.81489 -22.3759
LeftArm  17.6366 1.41252 -54.7065
LeftForeArm  118.469 -77.2802 -125.523
LeftHand  0.581641 11.5379 11.6304
RightShoulder  2.77283 4.89869 27.0143
RightArm  -26.1894 -15.2874 34.5173
RightForeArm  -2.44884 42.2574 10.3324
RightHand  -1.15416 -1.67851 -35.262
LeftUpLeg  4.73035 12.7753 10.6911
LeftLeg  29.5256 -3.60566 -1.83993
LeftFoot  -7.1943 0.701006 -18.0481
LeftToes  -6.27559e-011 -2.10356e-011 8.24929e-012
463
root  2.63511 40.1608 58.4385 -179.508 -57.4078 172.006
RightUpLeg  -10.1141 -15.0317 -15.6065
RightLeg  46.1644 4.32604 4.50321
RightFoot  7.62783 -0.50563 3.17143
RightToes  -1.74623e-010 0 -2.59999e-017
Spine  3.87085 -1.06986 -8.42492
Spine1  15.2948 -3.7975 4.21184
HEad  -5.72228 -31.3467 11.1249
LeftShoulder1  1.77524 -2.83137 -21.67
LeftArm  21.2035 7.08067 -55.5569
LeftForeArm  124.758 -76.7103 -129.65
LeftHand  0.133413 9.26316 5.04425
RightShoulder  2.77669 4.85074 27.2595
RightArm  -16.8749 -18.785 36.1208
RightForeArm  7.91627 54.7503 15.4632
RightHand  -0.49743 -2.28897 -18.03
LeftUpLeg  6.42908 12.5565 10.8012
LeftLeg  24.2197 -1.31045 -0.341056
LeftFoot  4.67001 2.2605 -16.251
LeftToes  -6.27559e-011 -2.10356e-011 8.24929e-012
